<svg width="40" height="40" viewBox="0 0 40 40" fill="none" xmlns="http://www.w3.org/2000/svg">
<path d="M39.4 24.8385C36.7287 35.5529 25.8762 42.0729 15.1606 39.4016C4.44999 36.7304 -2.07064 25.8779 0.601238 15.1641C3.27124 4.4485 14.1231 -2.07275 24.8356 0.598497C35.5506 3.26975 42.0706 14.1235 39.3994 24.8385H39.4Z" fill="#F7931A"/>
<path fill-rule="evenodd" clip-rule="evenodd" d="M26.0235 17.6765C26.2931 15.8712 24.9185 14.9007 23.039 14.2532L23.6487 11.8076L22.1596 11.4366L21.5661 13.8178C21.1751 13.7203 20.7732 13.6283 20.3738 13.5371L20.9716 11.1403L19.4838 10.7693L18.8737 13.214C18.5498 13.1402 18.2318 13.0673 17.9231 12.9906L17.9248 12.9829L15.8719 12.4703L15.4758 14.0603C15.4758 14.0603 16.5803 14.3134 16.557 14.3291C17.1599 14.4796 17.2693 14.8786 17.2507 15.1949L16.5562 17.9809C16.5977 17.9915 16.6516 18.0068 16.7109 18.0306L16.5541 17.9915L15.5801 21.8944C15.5064 22.0775 15.3194 22.3523 14.8979 22.248C14.9128 22.2696 13.8159 21.9779 13.8159 21.9779L13.0769 23.6824L15.0145 24.1653C15.2333 24.2201 15.4494 24.2765 15.6631 24.3322L15.6632 24.3322C15.8015 24.3683 15.9389 24.4042 16.0754 24.4392L15.4593 26.9132L16.9462 27.2842L17.5568 24.8369C17.9626 24.9471 18.3569 25.0489 18.7427 25.1447L18.1347 27.5805L19.6233 27.9515L20.2394 25.4826C22.7778 25.963 24.687 25.7692 25.4897 23.4738C26.1371 21.6252 25.4579 20.5588 24.1223 19.863C25.0949 19.6379 25.8276 18.9981 26.023 17.6765H26.0235ZM22.6218 22.446C22.1992 24.1427 19.5429 23.4406 18.3286 23.1197L18.3285 23.1197C18.2198 23.091 18.1227 23.0653 18.0397 23.0447L18.8572 19.7676C18.9586 19.793 19.0825 19.8208 19.2228 19.8523C20.4791 20.1342 23.0536 20.7119 22.6222 22.446H22.6218ZM19.4754 18.3316C20.4886 18.6019 22.6971 19.1911 23.0818 17.6498C23.4752 16.073 21.3276 15.5978 20.2788 15.3657C20.1609 15.3396 20.0568 15.3166 19.9719 15.2954L19.2307 18.2676C19.3009 18.285 19.3832 18.307 19.4754 18.3316Z" fill="white"/>
</svg>
