<svg width="68" height="35" viewBox="0 0 68 35" fill="none" xmlns="http://www.w3.org/2000/svg">
<path d="M5.3125 0V27H0.232422V0H5.3125ZM8.6875 17.6836V17.3145C8.6875 15.9199 8.88672 14.6367 9.28516 13.4648C9.68359 12.2812 10.2637 11.2559 11.0254 10.3887C11.7871 9.52148 12.7246 8.84766 13.8379 8.36719C14.9512 7.875 16.2285 7.62891 17.6699 7.62891C19.1113 7.62891 20.3945 7.875 21.5195 8.36719C22.6445 8.84766 23.5879 9.52148 24.3496 10.3887C25.123 11.2559 25.709 12.2812 26.1074 13.4648C26.5059 14.6367 26.7051 15.9199 26.7051 17.3145V17.6836C26.7051 19.0664 26.5059 20.3496 26.1074 21.5332C25.709 22.7051 25.123 23.7305 24.3496 24.6094C23.5879 25.4766 22.6504 26.1504 21.5371 26.6309C20.4238 27.1113 19.1465 27.3516 17.7051 27.3516C16.2637 27.3516 14.9805 27.1113 13.8555 26.6309C12.7422 26.1504 11.7988 25.4766 11.0254 24.6094C10.2637 23.7305 9.68359 22.7051 9.28516 21.5332C8.88672 20.3496 8.6875 19.0664 8.6875 17.6836ZM13.75 17.3145V17.6836C13.75 18.4805 13.8203 19.2246 13.9609 19.916C14.1016 20.6074 14.3242 21.2168 14.6289 21.7441C14.9453 22.2598 15.3555 22.6641 15.8594 22.957C16.3633 23.25 16.9785 23.3965 17.7051 23.3965C18.4082 23.3965 19.0117 23.25 19.5156 22.957C20.0195 22.6641 20.4238 22.2598 20.7285 21.7441C21.0332 21.2168 21.2559 20.6074 21.3965 19.916C21.5488 19.2246 21.625 18.4805 21.625 17.6836V17.3145C21.625 16.541 21.5488 15.8145 21.3965 15.1348C21.2559 14.4434 21.0273 13.834 20.7109 13.3066C20.4062 12.7676 20.002 12.3457 19.498 12.041C18.9941 11.7363 18.3848 11.584 17.6699 11.584C16.9551 11.584 16.3457 11.7363 15.8418 12.041C15.3496 12.3457 14.9453 12.7676 14.6289 13.3066C14.3242 13.834 14.1016 14.4434 13.9609 15.1348C13.8203 15.8145 13.75 16.541 13.75 17.3145ZM41.8574 7.98047H46.4453V26.3672C46.4453 28.1016 46.0586 29.5723 45.2852 30.7793C44.5234 31.998 43.457 32.918 42.0859 33.5391C40.7148 34.1719 39.1211 34.4883 37.3047 34.4883C36.5078 34.4883 35.6641 34.3828 34.7734 34.1719C33.8945 33.9609 33.0508 33.6328 32.2422 33.1875C31.4453 32.7422 30.7773 32.1797 30.2383 31.5L32.4707 28.5117C33.0566 29.1914 33.7363 29.7188 34.5098 30.0938C35.2832 30.4805 36.1387 30.6738 37.0762 30.6738C37.9902 30.6738 38.7637 30.5039 39.3965 30.1641C40.0293 29.8359 40.5156 29.3496 40.8555 28.7051C41.1953 28.0723 41.3652 27.3047 41.3652 26.4023V12.375L41.8574 7.98047ZM29.0605 17.7188V17.3496C29.0605 15.8965 29.2363 14.5781 29.5879 13.3945C29.9512 12.1992 30.4609 11.1738 31.1172 10.3184C31.7852 9.46289 32.5938 8.80078 33.543 8.33203C34.4922 7.86328 35.5645 7.62891 36.7598 7.62891C38.0254 7.62891 39.0859 7.86328 39.9414 8.33203C40.7969 8.80078 41.5 9.46875 42.0508 10.3359C42.6016 11.1914 43.0293 12.2051 43.334 13.377C43.6504 14.5371 43.8965 15.8086 44.0723 17.1914V18C43.8965 19.3242 43.6328 20.5547 43.2812 21.6914C42.9297 22.8281 42.4668 23.8242 41.8926 24.6797C41.3184 25.5234 40.6035 26.1797 39.748 26.6484C38.9043 27.1172 37.8965 27.3516 36.7246 27.3516C35.5527 27.3516 34.4922 27.1113 33.543 26.6309C32.6055 26.1504 31.8027 25.4766 31.1348 24.6094C30.4668 23.7422 29.9512 22.7227 29.5879 21.5508C29.2363 20.3789 29.0605 19.1016 29.0605 17.7188ZM34.123 17.3496V17.7188C34.123 18.5039 34.1992 19.2363 34.3516 19.916C34.5039 20.5957 34.7383 21.1992 35.0547 21.7266C35.3828 22.2422 35.7871 22.6465 36.2676 22.9395C36.7598 23.2207 37.3398 23.3613 38.0078 23.3613C38.9336 23.3613 39.6895 23.168 40.2754 22.7812C40.8613 22.3828 41.3008 21.8379 41.5938 21.1465C41.8867 20.4551 42.0566 19.6582 42.1035 18.7559V16.4531C42.0801 15.7148 41.9805 15.0527 41.8047 14.4668C41.6289 13.8691 41.3828 13.3594 41.0664 12.9375C40.75 12.5156 40.3398 12.1875 39.8359 11.9531C39.332 11.7188 38.7344 11.6016 38.043 11.6016C37.375 11.6016 36.7949 11.7539 36.3027 12.0586C35.8223 12.3516 35.418 12.7559 35.0898 13.2715C34.7734 13.7871 34.5332 14.3965 34.3691 15.0996C34.2051 15.791 34.123 16.541 34.123 17.3496ZM49.5742 17.6836V17.3145C49.5742 15.9199 49.7734 14.6367 50.1719 13.4648C50.5703 12.2812 51.1504 11.2559 51.9121 10.3887C52.6738 9.52148 53.6113 8.84766 54.7246 8.36719C55.8379 7.875 57.1152 7.62891 58.5566 7.62891C59.998 7.62891 61.2812 7.875 62.4062 8.36719C63.5312 8.84766 64.4746 9.52148 65.2363 10.3887C66.0098 11.2559 66.5957 12.2812 66.9941 13.4648C67.3926 14.6367 67.5918 15.9199 67.5918 17.3145V17.6836C67.5918 19.0664 67.3926 20.3496 66.9941 21.5332C66.5957 22.7051 66.0098 23.7305 65.2363 24.6094C64.4746 25.4766 63.5371 26.1504 62.4238 26.6309C61.3105 27.1113 60.0332 27.3516 58.5918 27.3516C57.1504 27.3516 55.8672 27.1113 54.7422 26.6309C53.6289 26.1504 52.6855 25.4766 51.9121 24.6094C51.1504 23.7305 50.5703 22.7051 50.1719 21.5332C49.7734 20.3496 49.5742 19.0664 49.5742 17.6836ZM54.6367 17.3145V17.6836C54.6367 18.4805 54.707 19.2246 54.8477 19.916C54.9883 20.6074 55.2109 21.2168 55.5156 21.7441C55.832 22.2598 56.2422 22.6641 56.7461 22.957C57.25 23.25 57.8652 23.3965 58.5918 23.3965C59.2949 23.3965 59.8984 23.25 60.4023 22.957C60.9062 22.6641 61.3105 22.2598 61.6152 21.7441C61.9199 21.2168 62.1426 20.6074 62.2832 19.916C62.4355 19.2246 62.5117 18.4805 62.5117 17.6836V17.3145C62.5117 16.541 62.4355 15.8145 62.2832 15.1348C62.1426 14.4434 61.9141 13.834 61.5977 13.3066C61.293 12.7676 60.8887 12.3457 60.3848 12.041C59.8809 11.7363 59.2715 11.584 58.5566 11.584C57.8418 11.584 57.2324 11.7363 56.7285 12.041C56.2363 12.3457 55.832 12.7676 55.5156 13.3066C55.2109 13.834 54.9883 14.4434 54.8477 15.1348C54.707 15.8145 54.6367 16.541 54.6367 17.3145Z" fill="white"/>
</svg>
