<svg width="433" height="310" viewBox="0 0 433 310" fill="none" xmlns="http://www.w3.org/2000/svg">
<g opacity="0.5">
<rect x="1" y="1" width="430" height="308" rx="29" stroke="#484848" stroke-width="2"/>
<path d="M3.68184 229.576L103.402 151.496C109.262 146.908 117.184 145.953 123.966 149.017L191.8 179.662C198.961 182.897 207.354 181.639 213.251 176.446L321.692 80.9575C328.813 74.6872 339.359 74.2831 346.939 79.99L432 144.033" stroke="#484848" stroke-width="2"/>
<path d="M124.182 74.5753C124.182 94.3839 110.736 110.132 94.5 110.132C78.2642 110.132 64.8182 94.3839 64.8182 74.5753C64.8182 54.7666 78.2642 39.0187 94.5 39.0187C110.736 39.0187 124.182 54.7666 124.182 74.5753Z" stroke="#484848" stroke-width="2"/>
</g>
</svg>
